<?xml version="1.0" standalone="no"?><!DOCTYPE svg PUBLIC "-//W3C//DTD SVG 1.1//EN" "http://www.w3.org/Graphics/SVG/1.1/DTD/svg11.dtd"><svg class="icon" width="300px" height="300.00px" viewBox="0 0 1024 1024" version="1.1" xmlns="http://www.w3.org/2000/svg"><path d="M512 176a32 32 0 0 0 32-32v-64a32 32 0 0 0-64 0v64a32 32 0 0 0 32 32zM131.872 289.152a32 32 0 0 0 45.248-45.248L131.872 198.624a32 32 0 0 0-45.248 45.248l45.248 45.28zM945.152 230.624a32 32 0 0 0-45.248 0l-45.248 45.248a32 32 0 0 0 45.248 45.248l45.248-45.248a32 32 0 0 0 0-45.248zM912 912H864v-352c0-194.4-157.6-352-352-352s-352 157.6-352 352v352H112a32 32 0 0 0 0 64h800a32 32 0 0 0 0-64z m-368 0v-128a32 32 0 0 0-64 0v128H224v-352c0-159.072 128.928-288 288-288s288 128.928 288 288v352h-256z" fill="#ffffff" /><path d="M512 464a128 128 0 1 0 0 256 128 128 0 0 0 0-256z m0 192a64 64 0 1 1 0.032-128.032A64 64 0 0 1 512 656z" fill="#ffffff" /></svg>