<?xml version="1.0" standalone="no"?><!DOCTYPE svg PUBLIC "-//W3C//DTD SVG 1.1//EN" "http://www.w3.org/Graphics/SVG/1.1/DTD/svg11.dtd"><svg class="icon" width="200px" height="200.00px" viewBox="0 0 1024 1024" version="1.1" xmlns="http://www.w3.org/2000/svg"><path d="M864 64H160a96 96 0 0 0-96 96v576a96 96 0 0 0 96 96h320v64H256a32 32 0 0 0 0 64h512a32 32 0 0 0 0-64h-224v-64h320a96 96 0 0 0 96-96V160a96 96 0 0 0-96-96zM160 128h704a32 32 0 0 1 32 32v448H128V160a32 32 0 0 1 32-32z m736 608a32 32 0 0 1-32 32H160a32 32 0 0 1-32-32v-64h768v64z" fill="#ffffff" /></svg>