<?xml version="1.0" standalone="no"?><!DOCTYPE svg PUBLIC "-//W3C//DTD SVG 1.1//EN" "http://www.w3.org/Graphics/SVG/1.1/DTD/svg11.dtd"><svg class="icon" width="200px" height="192.48px" viewBox="0 0 1064 1024" version="1.1" xmlns="http://www.w3.org/2000/svg"><path d="M1044.35712 432.128l-59.06432 17.69472c-14.7456 5.89824-35.4304-2.94912-41.32864-17.73568-5.89824-14.7456 2.94912-35.4304 17.73568-41.32864l59.02336-17.69472c14.7456-5.9392 35.4304 2.94912 41.3696 17.69472 5.85728 20.6848-2.99008 38.37952-17.73568 41.3696M102.52288 384.8192c14.7456 5.89824 23.63392 20.64384 17.69472 41.3696-5.89824 11.75552-20.64384 20.64384-41.32864 17.69472l-59.02336-17.73568c-14.7456-5.89824-23.63392-20.6848-17.73568-41.3696 5.89824-14.7456 20.6848-23.59296 41.3696-17.69472l58.9824 17.73568m714.5472-268.6976c8.84736-11.79648 26.54208-14.7456 44.2368-5.89824 11.8784 8.88832 14.78656 29.53216 5.9392 44.31872l-38.37952 50.176c-8.84736 11.79648-26.58304 14.7456-44.27776 5.89824-11.83744-8.84736-14.7456-32.48128-2.94912-44.27776l35.4304-50.176M238.34624 201.80992l-35.4304-53.16608c-8.88832-11.79648-5.9392-32.44032 5.89824-44.2368 14.7456-8.88832 35.4304-5.9392 44.27776 8.8064l38.37952 50.21696c5.89824 11.79648 2.94912 35.4304-8.84736 44.27776-14.7456 8.84736-35.4304 5.89824-44.27776-5.89824m265.70752-106.2912V33.50528c0-17.69472 11.79648-32.48128 29.4912-32.48128 17.73568 0 29.57312 11.83744 29.57312 32.48128v62.01344c0 17.69472-11.83744 32.48128-29.53216 32.48128-14.7456-2.94912-29.53216-14.7456-29.53216-32.48128M846.52032 524.00128v312.9344H226.5088v-312.9344c0-171.2128 138.77248-312.9344 310.02624-312.9344 171.2128 0 309.98528 138.73152 309.98528 312.9344z m-307.28192 165.80608a29.77792 29.77792 0 0 0 26.46016-15.52384l59.10528-112.06656a26.66496 26.66496 0 0 0-1.26976-27.2384 29.98272 29.98272 0 0 0-25.14944-13.312H527.9744l37.6832-71.55712a27.32032 27.32032 0 0 0-13.18912-37.56032 30.3104 30.3104 0 0 0-39.64928 12.53376l-59.14624 112.06656a26.66496 26.66496 0 0 0 1.31072 27.2384c5.3248 8.23296 14.86848 13.312 25.14944 13.312h70.41024l-37.6832 71.55712a27.32032 27.32032 0 0 0 13.18912 37.56032c4.25984 2.048 8.76544 2.99008 13.18912 2.99008zM164.53632 960.9216v-61.97248h741.04832v62.01344c0 35.4304-26.58304 62.01344-62.01344 62.01344H226.5088c-32.48128 0-61.97248-29.53216-61.97248-62.01344" fill="#2c2c2c" /><path d="M241.2544 999.34208H238.3872a45.71136 45.71136 0 0 1-32.48128-23.63392c-11.83744-17.69472-5.89824-35.4304-5.89824-38.37952 0-2.94912 8.84736-8.84736 14.7456-5.89824 5.89824 2.94912 11.79648 8.84736 8.84736 14.7456 0 5.9392-2.94912 23.63392 20.6848 29.53216 5.89824 2.94912 11.79648 8.88832 8.84736 14.7456 0 5.9392-5.89824 8.88832-11.79648 8.88832z" fill="#2c2c2c" /></svg>